<svg width="76" height="28" viewBox="0 0 76 28" fill="none" xmlns="http://www.w3.org/2000/svg">
<path d="M10.264 23.656C10.264 24.232 10.1467 24.776 9.912 25.288C9.67733 25.8 9.34667 26.2373 8.92 26.6C8.51467 26.984 8.03467 27.2827 7.48 27.496C6.92533 27.7307 6.33867 27.848 5.72 27.848C5.016 27.848 4.344 27.6667 3.704 27.304C3.08533 26.9413 2.53067 26.4613 2.04 25.864C1.54933 25.2667 1.15467 24.5733 0.856 23.784C0.578667 22.9947 0.44 22.1627 0.44 21.288V5.992C0.44 2.49333 1.73067 0.743999 4.312 0.743999C4.696 0.743999 5.048 0.797333 5.368 0.903999C5.70933 0.989333 6.06133 1.16 6.424 1.416C6.78667 1.65067 7.192 1.992 7.64 2.44C8.088 2.888 8.632 3.464 9.272 4.168C9.63467 4.57333 9.89067 4.95733 10.04 5.32C10.1893 5.68267 10.264 6.088 10.264 6.536V11.304H7.704L5.56 9.16V15.624H8.12L10.264 17.832V23.656ZM7.64 4.296C7.64 3.86933 7.55467 3.47467 7.384 3.112C7.21333 2.728 6.97867 2.39733 6.68 2.12C6.38133 1.84267 6.02933 1.62933 5.624 1.48C5.24 1.30933 4.824 1.224 4.376 1.224C3.52267 1.224 2.81867 1.448 2.264 1.896C1.70933 2.32267 1.34667 2.90933 1.176 3.656C1.13333 3.848 1.09067 4.02933 1.048 4.2C1.02667 4.34933 1.00533 4.552 0.984 4.808C0.962667 5.064 0.952 5.39467 0.952 5.8C0.952 6.184 0.941333 6.71733 0.92 7.4C0.92 8.06133 0.92 8.89333 0.92 9.896C0.92 10.8987 0.92 12.1253 0.92 13.576V17.448C0.92 18.7707 0.92 19.7947 0.92 20.52C0.941333 21.224 0.962667 21.768 0.984 22.152C1.02667 22.536 1.08 22.824 1.144 23.016C1.22933 23.208 1.34667 23.4213 1.496 23.656C1.79467 24.168 2.17867 24.5627 2.648 24.84C3.13867 25.096 3.69333 25.224 4.312 25.224C5.31467 25.224 6.11467 24.8827 6.712 24.2C7.33067 23.496 7.64 22.568 7.64 21.416V16.104H5.56V21.608C5.56 22.0987 5.432 22.504 5.176 22.824C4.92 23.144 4.58933 23.304 4.184 23.304C3.82133 23.304 3.52267 23.1653 3.288 22.888C3.07467 22.6107 2.968 22.248 2.968 21.8V5.128C2.968 3.80533 3.39467 3.144 4.248 3.144C4.61067 3.144 4.92 3.28267 5.176 3.56C5.432 3.83733 5.56 4.17867 5.56 4.584V8.68H7.64V4.296ZM13.1313 0.999998H16.1713L18.3153 3.336V27.624H15.4673L13.1313 25.48V0.999998ZM13.6113 25H15.6913V1.48H13.6113V25ZM31.9063 3.208V27.624H28.0343L26.6583 26.152V27.624H23.8423L21.5063 25.48V0.999998H25.6663L26.7863 2.28V0.999998H29.7303L31.9063 3.208ZM27.2663 1.48V20.232L25.4423 1.48H21.9863V25H24.0343V5.608L25.9223 25H29.2823V1.48H27.2663ZM35.1 0.999998H40.892L43.036 3.336V6.024H40.284V11.72H40.892L43.036 14.056V16.744H40.284V22.6H40.892L43.036 24.936V27.624H37.436L35.1 25.48V0.999998ZM35.58 25H40.412V23.08H37.66V14.12H40.412V12.2H37.66V3.4H40.412V1.48H35.58V25Z" fill="#FFFEFF"/>
<path d="M46.0688 0.999998H51.8608L54.0048 3.336V6.024H51.2528V11.72H51.8608L54.0048 14.056V16.744H51.2528V22.6H51.8608L54.0048 24.936V27.624H48.4048L46.0688 25.48V0.999998ZM46.5488 25H51.3808V23.08H48.6288V14.12H51.3808V12.2H48.6288V3.4H51.3808V1.48H46.5488V25ZM59.4695 3.4H60.6535C61.1442 3.464 61.4855 3.624 61.6775 3.88C61.8908 4.136 61.9975 4.54133 61.9975 5.096V21.448C61.9975 22.0667 61.8802 22.4933 61.6455 22.728C61.4108 22.9627 60.9948 23.08 60.3975 23.08H59.4695V3.4ZM60.6535 0.999998C61.2082 0.999998 61.6882 1.04266 62.0935 1.128C62.5202 1.21333 62.9255 1.36267 63.3095 1.576C63.6935 1.78933 64.0775 2.088 64.4615 2.472C64.8668 2.856 65.3255 3.34667 65.8375 3.944C66.2002 4.30667 66.4562 4.72267 66.6055 5.192C66.7548 5.64 66.8295 6.17333 66.8295 6.792V23.592C66.8295 24.168 66.7335 24.7013 66.5415 25.192C66.3708 25.6827 66.1255 26.1093 65.8055 26.472C65.5068 26.8347 65.1442 27.112 64.7175 27.304C64.2908 27.5173 63.8215 27.624 63.3095 27.624H59.1815L57.0375 25.48V0.999998H60.6535ZM61.4855 25C62.3388 25 63.0002 24.68 63.4695 24.04C63.9602 23.4 64.2055 22.504 64.2055 21.352V4.936C64.2055 2.632 63.0215 1.48 60.6535 1.48H57.5175V25H61.4855ZM69.8813 0.999998H72.9213L75.0653 3.336V27.624H72.2173L69.8813 25.48V0.999998ZM70.3613 25H72.4413V1.48H70.3613V25Z" fill="#B4151D"/>
</svg>
